<?xml version="1.0" encoding="utf-8"?>
<!-- Generator: Adobe Illustrator 16.0.0, SVG Export Plug-In . SVG Version: 6.00 Build 0)  -->
<!DOCTYPE svg PUBLIC "-//W3C//DTD SVG 1.1//EN" "http://www.w3.org/Graphics/SVG/1.1/DTD/svg11.dtd">
<svg version="1.1" id="Layer_1" xmlns="http://www.w3.org/2000/svg" xmlns:xlink="http://www.w3.org/1999/xlink" x="0px" y="0px"
	 width="400px" height="400px" viewBox="0 0 400 400" enable-background="new 0 0 400 400" xml:space="preserve">
<g>
	<g id="circle">
		<circle opacity="0.5" fill="#BEC6DF" enable-background="new    " cx="213.606" cy="200" r="94.424"/>
	</g>
	<g id="C_x27_s">
		<g>
			<g>
				<path fill="#E7A614" d="M163.198,142.012h20.821v110.132h-20.821V142.012z"/>
				<path fill="#E7A614" d="M209.041,142.012h22.281c12.237,0,20.821,1.096,25.935,3.288c5.114,2.191,9.315,5.844,12.42,10.775
					c3.104,4.931,4.749,10.958,4.749,17.898c0,7.306-1.827,13.332-5.297,18.081s-8.767,8.584-15.707,10.958l26.118,48.947h-23.014
					l-24.655-46.39h-2.01v46.756h-20.82V142.012z M230.044,185.114h6.575c6.758,0,11.324-0.913,13.698-2.557
					c2.557-1.826,3.835-4.749,3.835-8.767c0-2.374-0.548-4.566-1.825-6.21c-1.279-1.826-2.923-3.104-4.933-3.835
					c-2.009-0.73-5.844-1.097-11.506-1.097h-5.661v22.465H230.044z"/>
			</g>
			<g>
				<path fill="#004B8D" d="M329.034,114.981l-35.432,33.24c-24.108-25.205-51.321-37.624-81.457-37.624
					c-25.387,0-46.938,8.584-64.289,25.752c-17.35,17.167-26.117,38.354-26.117,63.375c0,17.533,3.835,33.058,11.506,46.573
					c7.671,13.515,18.629,24.291,32.693,31.962c14.062,7.67,29.77,11.688,47.12,11.688c14.794,0,28.127-2.739,40.363-8.036
					c12.237-5.479,25.569-15.342,40.181-29.587l34.336,35.249c-19.725,18.994-38.354,31.962-55.705,39.267
					c-17.532,7.306-37.44,10.959-59.905,10.959c-41.459,0-75.247-12.968-101.729-38.72c-26.483-25.935-39.633-59.175-39.633-99.538
					c0-26.117,6.027-49.495,18.082-69.768s29.222-36.71,51.687-49.13c22.282-12.237,46.39-18.446,72.142-18.446
					c21.917,0,43.103,4.566,63.559,13.698C296.707,85.028,314.24,97.996,329.034,114.981z"/>
			</g>
		</g>
	</g>
</g>
</svg>
