<?xml version="1.0" encoding="utf-8"?>
<!-- Generator: Adobe Illustrator 16.0.4, SVG Export Plug-In . SVG Version: 6.00 Build 0)  -->
<!DOCTYPE svg PUBLIC "-//W3C//DTD SVG 1.1//EN" "http://www.w3.org/Graphics/SVG/1.1/DTD/svg11.dtd">
<svg version="1.1" id="Layer_1" xmlns="http://www.w3.org/2000/svg" xmlns:xlink="http://www.w3.org/1999/xlink" x="0px" y="0px"
	 width="333.333px" height="333.333px" viewBox="33.333 33.333 333.333 333.333"
	 enable-background="new 33.333 33.333 333.333 333.333" xml:space="preserve">
<g>
	<g>
		<path fill="#FFFFFF" d="M150,66.667c46.667,0,83.334,36.667,83.334,83.333S196.667,233.334,150,233.334S66.667,196.667,66.667,150
			S103.333,66.667,150,66.667 M150,33.333C85,33.333,33.333,85,33.333,150S85,266.666,150,266.666S266.666,215,266.666,150
			S215,33.333,150,33.333L150,33.333z"/>
	</g>
</g>
<g>
	<polygon fill="#FFFFFF" points="366.667,338.334 338.333,366.666 233.334,261.666 233.334,233.334 261.666,233.334 	"/>
	
		<rect x="229.839" y="210.379" transform="matrix(-0.7071 0.7071 -0.7071 -0.7071 579.4046 240.7478)" fill="#FFFFFF" width="20" height="60"/>
</g>
</svg>
